<svg width="40" height="40" viewBox="0 0 40 40" fill="none" xmlns="http://www.w3.org/2000/svg">
<path fill-rule="evenodd" clip-rule="evenodd" d="M19.18 8.68705C18.9448 10.5686 18.2983 12.3214 17.3311 13.8511C15.5746 13.517 13.8723 12.8053 12.3503 11.7138L11.2294 10.9099L10.9099 11.2294L11.7138 12.3503C12.8326 13.9105 13.5523 15.6599 13.8755 17.4632C12.3719 18.5097 10.6259 19.2379 8.73161 19.5499L7.37054 19.7741V20.2259L8.73161 20.4501C10.5797 20.7545 12.2866 21.455 13.7649 22.4608C13.3671 24.2263 12.5849 25.9229 11.4207 27.4197L8.48684 31.1919L8.80812 31.5132L12.5803 28.5793C14.039 27.4448 15.6874 26.673 17.4044 26.2662C18.331 27.768 18.9508 29.4793 19.18 31.313L19.7728 36.0549H20.2272L20.82 31.313C21.0552 29.4314 21.7017 27.6786 22.6689 26.1489C24.4254 26.4831 26.1277 27.1947 27.6497 28.2862L28.7706 29.0901L29.0901 28.7706L28.2862 27.6497C27.1674 26.0896 26.4477 24.3401 26.1245 22.5368C27.6281 21.4903 29.3741 20.7621 31.2684 20.4501L32.6295 20.2259L32.6295 19.7741L31.2684 19.5499C29.4203 19.2455 27.7134 18.545 26.2351 17.5393C26.6329 15.7737 27.4151 14.0771 28.5793 12.5803L31.5132 8.80813L31.1919 8.48684L27.4197 11.4207C25.961 12.5553 24.3126 13.327 22.5956 13.7338C21.669 12.232 21.0492 10.5207 20.82 8.68705L20.2272 3.94511H19.7728L19.18 8.68705ZM20 5.81925L19.6344 8.74385C19.3989 10.6279 18.7655 12.3873 17.8189 13.934C19.2475 14.1481 20.7041 14.1151 22.122 13.8364C21.2081 12.3134 20.5962 10.5884 20.3656 8.74384L20 5.81925ZM12.092 12.092C13.2032 13.6441 13.9336 15.3766 14.2855 17.1654C15.3582 16.3528 16.2951 15.3726 17.0586 14.264C15.3077 13.9043 13.6132 13.1811 12.092 12.092ZM17.5499 14.3551C16.6954 15.6382 15.6195 16.7612 14.3745 17.6698C14.6124 19.1927 14.5791 20.7476 14.276 22.259C15.5967 23.2041 16.7313 24.3886 17.6186 25.7491C19.2081 25.4146 20.8479 25.3792 22.4501 25.6449C23.3046 24.3618 24.3805 23.2388 25.6256 22.3302C25.3876 20.8073 25.4209 19.2524 25.724 17.741C24.4033 16.7959 23.2687 15.6114 22.3814 14.2509C20.7919 14.5854 19.152 14.6208 17.5499 14.3551ZM8.81642 20C10.6996 19.6883 12.4411 18.9796 13.9548 17.9636C14.1388 19.2968 14.1082 20.6523 13.8641 21.9761C12.3717 20.9923 10.6621 20.3055 8.81642 20ZM11.7822 27.7008C12.9479 26.202 13.7441 24.5101 14.1684 22.747C15.33 23.6059 16.3366 24.6592 17.1421 25.8588C15.419 26.2895 13.7665 27.0766 12.2992 28.2178L9.9727 30.0273L11.7822 27.7008ZM19.6344 31.2562C19.4038 29.4116 18.7919 27.6866 17.878 26.1636C19.2959 25.8849 20.7525 25.852 22.1811 26.066C21.2345 27.6127 20.6011 29.3721 20.3656 31.2562L20 34.1808L19.6344 31.2562ZM27.908 27.908C26.3868 26.8189 24.6923 26.0957 22.9414 25.736C23.7049 24.6274 24.6418 23.6473 25.7145 22.8346C26.0664 24.6234 26.7968 26.3559 27.908 27.908ZM31.1836 20C29.3004 20.3117 27.5589 21.0204 26.0452 22.0364C25.8612 20.7032 25.8918 19.3477 26.1359 18.0239C27.6283 19.0077 29.3379 19.6945 31.1836 20ZM28.2178 12.2992C27.0521 13.798 26.2559 15.49 25.8316 17.253C24.67 16.3941 23.6634 15.3408 22.8579 14.1412C24.581 13.7105 26.2335 12.9234 27.7008 11.7822L30.0273 9.9727L28.2178 12.2992Z" fill="white"/>
<path fill-rule="evenodd" clip-rule="evenodd" d="M40 20C40 31.0457 31.0457 40 20 40C8.9543 40 0 31.0457 0 20C0 8.9543 8.9543 0 20 0C31.0457 0 40 8.9543 40 20ZM39.5421 20C39.5421 30.7928 30.7928 39.5421 20 39.5421C9.2072 39.5421 0.4579 30.7928 0.4579 20C0.4579 9.2072 9.2072 0.4579 20 0.4579C30.7928 0.4579 39.5421 9.2072 39.5421 20Z" fill="white"/>
</svg>
