<svg width="35" height="40" viewBox="0 0 35 40" fill="none" xmlns="http://www.w3.org/2000/svg">
<path fill-rule="evenodd" clip-rule="evenodd" d="M17.5 2.33467L16.9934 5.97791C16.0003 13.1203 9.90128 18.8246 2.00348 20C9.90128 21.1754 16.0003 26.8797 16.9934 34.0221L17.5 37.6653L18.0066 34.0221C18.9997 26.8797 25.0987 21.1754 32.9965 20C25.0987 18.8246 18.9997 13.1203 18.0066 5.97791L17.5 2.33467ZM16.3638 5.90716L17.1852 0L17.8148 1.91247e-08L18.6362 5.90715C19.595 12.8031 25.4866 18.3098 33.114 19.4393L35 19.7186L35 20.2814L33.114 20.5607C25.4866 21.6902 19.595 27.1969 18.6362 34.0928L17.8148 40H17.1852L16.3638 34.0928C15.405 27.1969 9.51338 21.6902 1.88596 20.5607L3.54548e-07 20.2814L0 19.7186L1.88596 19.4393C9.51338 18.3098 15.405 12.8031 16.3638 5.90716Z" fill="white"/>
<path fill-rule="evenodd" clip-rule="evenodd" d="M8.91478 31.3528C12.2329 29.4839 16.3705 26.4606 20.5284 22.7226C24.6863 18.9846 28.0491 15.2648 30.128 12.2817C31.1701 10.7862 31.8704 9.50295 32.1971 8.51157C32.3606 8.01552 32.4206 7.62172 32.4017 7.32641C32.383 7.03577 32.292 6.87917 32.1933 6.79042C32.0946 6.70167 31.9204 6.61986 31.5971 6.60313C31.2686 6.58613 30.8306 6.64005 30.2788 6.78701C29.1761 7.08071 27.7487 7.71028 26.0852 8.64722C22.7671 10.5161 18.6295 13.5394 14.4716 17.2774C10.3137 21.0154 6.95087 24.7352 4.87204 27.7183C3.82985 29.2138 3.12957 30.4971 2.80288 31.4885C2.63942 31.9845 2.57943 32.3783 2.59834 32.6736C2.61695 32.9643 2.70795 33.1209 2.80667 33.2096C2.90538 33.2983 3.07957 33.3802 3.40286 33.3969C3.73134 33.4139 4.16938 33.36 4.72114 33.213C5.82388 32.9193 7.25129 32.2897 8.91478 31.3528ZM2.35802 33.6129C4.27834 35.3394 12.6144 30.6442 20.977 23.1259C29.3397 15.6077 34.5623 8.11348 32.642 6.38707C30.7217 4.66067 22.3856 9.35586 14.0229 16.8741C5.66026 24.3923 0.437696 31.8865 2.35802 33.6129Z" fill="white"/>
<path fill-rule="evenodd" clip-rule="evenodd" d="M4.87204 12.2817C6.95087 15.2648 10.3137 18.9846 14.4716 22.7226C18.6295 26.4606 22.7671 29.4839 26.0852 31.3528C27.7487 32.2898 29.1761 32.9193 30.2789 33.213C30.8306 33.36 31.2687 33.4139 31.5971 33.3969C31.9204 33.3802 32.0946 33.2984 32.1933 33.2096C32.292 33.1209 32.383 32.9643 32.4017 32.6736C32.4206 32.3783 32.3606 31.9845 32.1971 31.4885C31.8704 30.4971 31.1701 29.2138 30.128 27.7183C28.0491 24.7352 24.6863 21.0155 20.5284 17.2774C16.3705 13.5394 12.2329 10.5162 8.91479 8.64724C7.25129 7.71029 5.82388 7.08073 4.72115 6.78703C4.16938 6.64007 3.73135 6.58614 3.40286 6.60314C3.07958 6.61988 2.90539 6.70169 2.80667 6.79043C2.70795 6.87918 2.61696 7.03578 2.59834 7.32642C2.57943 7.62173 2.63942 8.01554 2.80288 8.51158C3.12957 9.50296 3.82985 10.7862 4.87204 12.2817ZM2.35802 6.38709C0.437699 8.11349 5.66027 15.6077 14.023 23.126C22.3856 30.6442 30.7217 35.3394 32.642 33.613C34.5623 31.8866 29.3397 24.3923 20.977 16.8741C12.6144 9.35587 4.27834 4.66068 2.35802 6.38709Z" fill="white"/>
</svg>
